<svg version="1.1" id="Layer_1" xmlns="http://www.w3.org/2000/svg" xmlns:xlink="http://www.w3.org/1999/xlink" x="0px" y="0px"
	 width="100%" viewBox="0 0 225 225" enable-background="new 0 0 225 225" xml:space="preserve">
<path fill="#FFFFFF" opacity="1.000000" stroke="none" 
	d="
M127.000000,226.000000 
	C84.666672,226.000000 42.833340,226.000000 1.000006,226.000000 
	C1.000004,151.000000 1.000004,76.000015 1.000002,1.000016 
	C75.999992,1.000010 150.999985,1.000010 225.999969,1.000005 
	C225.999985,75.999985 225.999985,150.999969 226.000000,225.999969 
	C193.166672,226.000000 160.333328,226.000000 127.000000,226.000000 
M133.112305,91.813797 
	C134.103378,92.208549 135.094437,92.603302 136.324341,93.828300 
	C136.456284,106.531174 136.588211,119.234047 136.529266,132.517075 
	C136.631714,132.692978 136.734161,132.868881 136.441940,132.923325 
	C136.441940,132.923325 136.040298,132.827316 135.995453,132.097519 
	C134.132599,131.270004 132.297394,129.970123 130.392624,129.858597 
	C129.678574,129.816788 128.802704,132.538727 127.999565,134.460052 
	C127.999565,134.460052 127.998459,134.919479 127.136475,134.974228 
	C125.578659,135.065384 124.020844,135.156540 122.032265,135.272903 
	C122.285309,138.347000 122.494034,140.882645 122.769539,144.229462 
	C125.870087,140.855240 125.870087,140.855240 129.890747,144.320435 
	C129.484146,146.380157 129.077530,148.439880 128.595154,150.883469 
	C129.859436,151.257858 131.067871,151.615723 132.415146,152.775833 
	C132.350403,153.855118 132.285645,154.934387 131.498245,156.081268 
	C131.058884,156.596954 130.619522,157.112640 130.180161,157.628326 
	C130.857422,158.081314 131.534683,158.534286 132.386887,159.654633 
	C132.327896,160.107040 132.268890,160.559448 131.474609,161.093231 
	C131.315735,162.832397 131.317474,164.604752 130.966431,166.304214 
	C130.087463,170.559402 133.728485,171.743622 136.091507,172.113434 
	C138.550217,172.498215 141.346725,170.724731 144.915787,169.710114 
	C149.946671,169.760345 154.977554,169.810577 160.067596,170.608719 
	C162.432098,171.966019 164.754425,173.421005 167.241272,174.495041 
	C167.440094,174.580887 169.346909,172.068954 169.422119,170.706940 
	C169.499176,169.311218 168.299988,167.845016 167.285385,165.667923 
	C167.258148,163.470215 167.230896,161.272522 168.034866,159.062622 
	C168.875488,158.605133 169.716125,158.147644 170.556747,157.690140 
	C169.395325,157.127167 168.233917,156.564209 166.899338,155.179398 
	C166.968918,153.787415 167.038498,152.395432 167.824844,151.094879 
	C170.741821,152.183182 173.480484,153.239487 176.651215,151.195480 
	C177.877060,150.405228 180.849594,150.480865 181.757965,151.406616 
	C183.988983,153.680237 185.408813,153.341156 187.451141,151.408722 
	C188.272400,150.631668 189.974136,149.937408 190.903000,150.263977 
	C195.730057,151.960999 195.906586,148.778625 195.970734,145.637756 
	C196.082336,140.173019 196.006912,134.704468 196.922653,129.023071 
	C202.630997,129.072540 208.339355,129.122025 214.561142,129.656113 
	C217.921570,130.294449 217.976044,127.982086 217.987762,125.739716 
	C218.019806,119.608009 217.782181,113.465782 218.070190,107.347435 
	C218.296585,102.538033 219.304565,97.766731 219.571106,92.956657 
	C219.618057,92.109367 216.933487,90.287491 216.837769,90.374580 
	C213.473862,93.435333 211.467636,91.255196 210.323807,89.157730 
	C208.418533,91.111542 206.707825,92.865837 204.342056,94.799423 
	C203.896515,94.743782 203.450958,94.688141 202.831650,94.001404 
	C202.304657,93.648514 201.805756,93.241554 201.246384,92.950989 
	C194.624268,89.510986 194.277206,87.511925 199.310486,81.986542 
	C199.598389,81.670456 199.578812,81.074242 199.834183,80.111198 
	C189.159119,76.907753 201.246292,70.794312 198.845551,67.000145 
	C192.792618,67.000145 187.509857,66.892174 182.236847,67.071289 
	C180.805954,67.119888 179.404510,68.035416 177.245514,68.756393 
	C176.486084,68.689293 175.726669,68.622192 174.988220,67.828957 
	C173.740356,66.319923 172.014603,65.000160 171.328766,63.268524 
	C168.603348,56.387177 163.342850,55.202763 156.802628,55.938206 
	C153.690613,56.288147 150.145645,56.877995 147.429138,55.786057 
	C142.115601,53.650196 137.546341,56.777790 132.607910,56.693691 
	C129.202805,56.635700 128.763382,58.828270 129.079544,61.723492 
	C129.828308,68.580009 130.299820,75.466858 131.053299,82.322769 
	C131.228699,83.918564 132.081879,85.439873 132.770309,87.648216 
	C132.731857,88.090416 132.693405,88.532608 131.982239,88.992287 
	C131.128784,89.268913 130.275345,89.545547 129.421890,89.822182 
	C129.481400,90.109238 129.540909,90.396301 129.600418,90.683365 
	C130.688324,90.808105 131.776230,90.932854 132.946182,91.069122 
	C132.946182,91.069122 132.944931,91.151955 133.112305,91.813797 
M116.377174,117.041878 
	C115.907143,117.393372 115.437111,117.744865 114.294403,118.348824 
	C112.430367,119.873138 110.665298,122.540108 108.684097,122.711708 
	C102.239586,123.269897 95.714561,122.996445 89.223511,122.878677 
	C85.890610,122.818214 83.994858,120.983452 83.984596,117.532372 
	C83.965782,111.206024 83.614914,104.843651 84.218765,98.574921 
	C84.400757,96.685555 87.191475,93.659447 88.942329,93.545868 
	C97.186424,93.011101 105.484444,93.307739 114.239716,93.307739 
	C114.239716,98.139801 114.239716,102.483063 114.239716,107.403542 
	C124.061440,95.103416 125.565453,91.096260 123.398193,83.329582 
	C111.986908,83.329582 100.514008,83.179749 89.047318,83.382080 
	C81.357849,83.517761 76.834335,87.331009 74.037872,95.492142 
	C74.037872,95.492142 74.105072,95.973602 73.884888,96.891724 
	C73.954842,104.601486 74.024788,112.311241 74.014847,120.499916 
	C74.014847,120.499916 74.193825,120.951248 74.191689,121.669174 
	C77.496246,130.027634 81.846992,133.010178 90.746864,133.012390 
	C96.712875,133.013885 102.679283,133.054642 108.644791,132.999359 
	C117.400124,132.918228 123.038696,127.787033 124.596375,118.727715 
	C124.814255,118.533165 124.962738,118.295280 125.784576,117.987991 
	C128.385727,117.642105 128.532196,116.278488 126.896698,114.693695 
	C125.168785,113.019325 118.242332,114.734390 116.377174,117.041878 
M88.610611,141.455826 
	C89.526077,142.131622 90.441551,142.807404 91.793549,143.805435 
	C91.793549,140.310059 91.793549,137.742157 91.793549,135.174240 
	C91.476379,135.132263 91.159210,135.090271 90.842041,135.048294 
	C90.413452,136.203064 89.984863,137.357834 89.553200,138.520905 
	C88.011314,137.219482 86.522797,135.963120 84.485405,134.243484 
	C84.485405,137.877792 84.485405,140.460236 84.485405,144.545074 
	C85.751976,142.500000 86.206116,141.766708 87.092377,141.022751 
	C87.092377,141.022751 87.525566,141.013870 87.525566,141.013870 
	C87.525566,141.013870 87.958839,141.014450 88.610611,141.455826 
M77.080811,139.261856 
	C75.860054,138.679291 74.639305,138.096710 73.372757,137.492294 
	C74.628662,137.109375 75.846756,136.737976 77.064850,136.366592 
	C77.028946,136.071045 76.993042,135.775497 76.957138,135.479950 
	C74.753761,135.479950 72.550392,135.479950 70.263756,135.479950 
	C70.263756,138.371475 70.263756,140.972534 70.263756,145.319687 
	C73.100853,143.513123 75.042511,142.276733 76.999611,140.536819 
	C77.003624,140.368942 77.007637,140.201065 77.080811,139.261856 
M44.111755,136.717590 
	C43.184799,136.071533 42.257839,135.425476 40.323456,134.077286 
	C40.506741,138.045074 40.627018,140.648865 40.747295,143.252655 
	C41.275925,143.251785 41.804554,143.250931 42.333183,143.250076 
	C42.675354,142.143829 43.017525,141.037582 43.307484,140.100159 
	C44.891659,141.271988 46.438686,142.416336 48.477837,143.924713 
	C48.477837,140.305237 48.477837,137.701752 48.477837,133.660400 
	C47.180065,135.593475 46.703541,136.303268 45.456196,137.050812 
	C45.200191,137.076080 44.944187,137.101334 44.111755,136.717590 
M115.393974,139.786316 
	C114.151016,138.940475 112.908058,138.094635 111.869095,137.387619 
	C112.870667,137.116806 114.235947,136.747650 115.601227,136.378510 
	C115.541153,136.041382 115.481079,135.704269 115.421005,135.367157 
	C113.164139,135.367157 110.907272,135.367157 108.545334,135.367157 
	C108.545334,138.143845 108.545334,140.675232 108.545334,143.842804 
	C110.894180,142.448547 114.508636,146.323044 115.003502,140.712753 
	C115.003502,140.712753 115.017067,140.334473 115.393974,139.786316 
M44.451435,122.439484 
	C42.373287,122.292580 40.257328,121.836075 38.227398,122.083992 
	C36.107899,122.342857 34.071232,123.279961 31.566889,124.598343 
	C31.566889,127.348763 31.566889,130.099182 31.566889,133.029251 
	C36.933132,133.029251 41.750011,133.088760 46.564877,133.015625 
	C54.186703,132.899841 60.941917,127.949959 61.404800,120.337318 
	C62.145267,108.159431 61.603035,95.903549 61.603035,83.487534 
	C54.980671,83.487534 48.703579,83.487534 41.818287,83.487534 
	C41.818287,86.266472 40.716007,90.391899 42.063293,91.477615 
	C44.383835,93.347641 48.229324,93.325333 51.798553,94.184753 
	C51.798553,101.349197 51.722256,108.646606 51.825836,115.941467 
	C51.892998,120.671341 49.840466,123.124588 44.451435,122.439484 
M61.236122,143.829651 
	C62.034397,142.508881 62.832672,141.188110 63.630947,139.867355 
	C61.233650,139.864639 60.081852,140.369202 58.891129,140.753052 
	C58.836479,140.770691 58.159153,139.250687 58.230541,139.207657 
	C59.874218,138.216675 61.581635,137.331436 63.277203,136.426529 
	C61.506756,135.392197 59.346073,134.890320 57.661949,135.569733 
	C56.550800,136.018005 55.160480,138.796783 55.576042,139.431366 
	C56.749481,141.223312 58.789742,142.447647 61.236122,143.829651 
M74.425880,150.887894 
	C74.551125,150.098877 74.676369,149.309860 74.801605,148.520844 
	C74.061050,148.533005 73.320503,148.545166 72.579941,148.557343 
	C72.971039,149.300003 73.362129,150.042664 74.425880,150.887894 
M50.691616,147.502518 
	C50.589283,148.474182 50.486946,149.445831 50.384613,150.417496 
	C50.848442,150.395798 51.312271,150.374100 51.776100,150.352386 
	C51.635983,149.404633 51.495861,148.456863 50.691616,147.502518 
M174.469589,156.656433 
	C174.953629,157.301987 175.437668,157.947525 175.921707,158.593079 
	C176.216660,158.287338 176.511612,157.981583 176.806564,157.675842 
	C176.191742,157.198410 175.576920,156.720963 174.469589,156.656433 
M99.852371,141.352020 
	C99.669136,142.027695 99.485901,142.703354 99.302658,143.379028 
	C99.849625,143.353699 100.396591,143.328384 100.943550,143.303055 
	C100.679985,142.470490 100.416420,141.637939 99.852371,141.352020 
M63.110336,150.736755 
	C63.110023,150.245483 63.109711,149.754196 63.109402,149.262939 
	C62.564991,149.406174 62.020584,149.549423 61.476173,149.692657 
	C61.819923,150.082275 62.163673,150.471878 63.110336,150.736755 
M123.293053,150.548584 
	C123.338249,149.893173 123.383438,149.237762 123.428635,148.582352 
	C123.150238,148.578369 122.871849,148.574371 122.593452,148.570389 
	C122.623253,149.227509 122.653061,149.884613 123.293053,150.548584 
M84.315338,148.454041 
	C83.953262,148.943146 83.591179,149.432251 83.229103,149.921371 
	C83.583809,150.125015 83.938515,150.328659 84.293213,150.532303 
	C84.442513,149.988129 84.591812,149.443970 84.315338,148.454041 
M31.872644,143.739822 
	C32.425152,143.599609 32.977661,143.459412 33.530170,143.319199 
	C33.337532,142.954330 33.144894,142.589478 32.952248,142.224609 
	C32.446758,142.581482 31.941271,142.938354 31.872644,143.739822 
M199.685501,147.527267 
	C200.024567,146.979477 200.363647,146.431702 200.702728,145.883926 
	C200.428162,145.748917 200.153595,145.613907 199.879028,145.478882 
	C199.673782,146.015305 199.468536,146.551712 199.685501,147.527267 
M112.475769,148.403091 
	C111.874474,148.087006 111.273178,147.770905 110.671883,147.454819 
	C110.604767,147.872070 110.537651,148.289322 110.470535,148.706573 
	C111.090134,148.786789 111.709724,148.867004 112.475769,148.403091 
M172.296219,164.431885 
	C172.010635,164.704483 171.725067,164.977066 171.439484,165.249664 
	C171.552505,165.367859 171.757584,165.595016 171.765289,165.588501 
	C172.066483,165.334106 172.349701,165.058411 172.296219,164.431885 
M86.617050,148.475052 
	C86.835548,148.530823 87.054039,148.586578 87.272537,148.642334 
	C87.131973,148.504715 86.991409,148.367081 86.617050,148.475052 
M42.517391,149.408829 
	C42.517391,149.408829 42.586224,149.523254 42.517391,149.408829 
z"/>
<path fill="#414143" opacity="1.000000" stroke="none" 
	d="
M124.218163,118.921043 
	C123.038696,127.787033 117.400124,132.918228 108.644791,132.999359 
	C102.679283,133.054642 96.712875,133.013885 90.746864,133.012390 
	C81.846992,133.010178 77.496246,130.027634 74.337524,121.211983 
	C74.353813,120.510193 74.224281,120.265602 74.094742,120.021004 
	C74.024788,112.311241 73.954842,104.601486 74.149986,96.369202 
	C74.667809,95.556190 74.614555,95.293076 74.255333,95.057358 
	C76.834335,87.331009 81.357849,83.517761 89.047318,83.382080 
	C100.514008,83.179749 111.986908,83.329582 123.398193,83.329582 
	C125.565453,91.096260 124.061440,95.103416 114.239716,107.403542 
	C114.239716,102.483063 114.239716,98.139801 114.239716,93.307739 
	C105.484444,93.307739 97.186424,93.011101 88.942329,93.545868 
	C87.191475,93.659447 84.400757,96.685555 84.218765,98.574921 
	C83.614914,104.843651 83.965782,111.206024 83.984596,117.532372 
	C83.994858,120.983452 85.890610,122.818214 89.223511,122.878677 
	C95.714561,122.996445 102.239586,123.269897 108.684097,122.711708 
	C110.665298,122.540108 112.430367,119.873138 114.827316,118.550034 
	C117.243179,118.508286 119.126137,118.265327 121.338013,117.987320 
	C122.105629,117.983139 122.544334,118.014015 123.072174,118.320129 
	C123.513596,118.703926 123.865875,118.812485 124.218163,118.921043 
z"/>
<path fill="#FCDA85" opacity="1.000000" stroke="none" 
	d="
M132.654968,88.974808 
	C132.693405,88.532608 132.731857,88.090416 132.797104,86.862762 
	C132.861374,77.949135 132.971329,69.820282 132.895538,61.693176 
	C132.870270,58.984562 133.708115,57.817516 136.584198,57.857910 
	C145.208862,57.979065 153.836960,57.941238 162.462555,57.851925 
	C164.865829,57.827045 166.145798,58.446056 166.216064,61.143856 
	C166.283417,63.728992 166.844070,66.301270 166.741043,68.925026 
	C161.240967,68.228462 159.577591,70.455254 159.908371,75.416023 
	C160.258667,80.669189 159.894745,85.969963 159.390808,91.218071 
	C153.053360,91.176666 147.167892,91.167137 141.056305,90.878677 
	C139.553696,88.688889 138.277206,86.778030 136.570740,84.223526 
	C136.345795,87.107925 136.188705,89.122437 135.645981,91.125740 
	C134.488556,91.127007 133.716736,91.139481 132.944931,91.151955 
	C132.944931,91.151955 132.946182,91.069122 132.927185,90.711349 
	C132.823776,89.893982 132.739380,89.434395 132.654968,88.974808 
z"/>
<path fill="#FDC83B" opacity="1.000000" stroke="none" 
	d="
M203.005417,94.632507 
	C203.450958,94.688141 203.896515,94.743782 205.120819,94.810287 
	C207.229141,94.850983 208.591843,95.084480 209.882385,94.874496 
	C214.791595,94.075775 216.154358,96.162491 215.925430,100.911263 
	C215.549530,108.708153 215.910599,116.538155 215.727737,124.348732 
	C215.689819,125.968536 214.634247,127.564522 214.047699,129.171494 
	C208.339355,129.122025 202.630997,129.072540 196.157104,129.061829 
	C194.969559,129.103180 194.547592,129.105743 194.074600,128.635971 
	C194.017944,126.044182 194.011200,123.924744 194.006836,121.805305 
	C193.992905,115.034691 193.993240,115.034691 187.087036,114.504082 
	C186.954941,107.728310 186.893250,101.412460 186.910309,94.835785 
	C187.043777,94.401772 187.098526,94.228592 187.549347,94.056717 
	C190.077545,94.294296 192.209671,94.530579 194.768860,94.809471 
	C197.799072,94.778885 200.402237,94.705696 203.005417,94.632507 
z"/>
<path fill="#424244" opacity="1.000000" stroke="none" 
	d="
M45.017902,123.048988 
	C49.840466,123.124588 51.892998,120.671341 51.825836,115.941467 
	C51.722256,108.646606 51.798553,101.349197 51.798553,94.184753 
	C48.229324,93.325333 44.383835,93.347641 42.063293,91.477615 
	C40.716007,90.391899 41.818287,86.266472 41.818287,83.487534 
	C48.703579,83.487534 54.980671,83.487534 61.603035,83.487534 
	C61.603035,95.903549 62.145267,108.159431 61.404800,120.337318 
	C60.941917,127.949959 54.186703,132.899841 46.564877,133.015625 
	C41.750011,133.088760 36.933132,133.029251 31.566889,133.029251 
	C31.566889,130.099182 31.566889,127.348763 32.243114,124.280952 
	C36.952194,123.658707 40.985050,123.353851 45.017902,123.048988 
z"/>
<path fill="#454442" opacity="1.000000" stroke="none" 
	d="
M136.031601,91.136955 
	C136.188705,89.122437 136.345795,87.107925 136.570740,84.223526 
	C138.277206,86.778030 139.553696,88.688889 141.145325,91.186562 
	C147.557938,102.160652 153.655426,112.547935 159.963425,123.238892 
	C161.725632,125.692795 163.277328,127.843033 164.958099,130.300491 
	C165.425812,131.422455 165.764465,132.237198 166.098190,133.277542 
	C166.210312,133.818802 166.435944,133.997269 166.839233,134.275894 
	C166.908356,134.513245 166.963974,135.004517 166.736511,135.179230 
	C166.331833,135.889008 166.154648,136.424057 165.980927,136.972824 
	C165.984406,136.986542 165.956650,136.991989 165.701752,137.144287 
	C165.248856,137.845169 165.050873,138.393753 164.902969,138.949738 
	C164.953049,138.957138 164.887833,138.879700 164.611969,139.034866 
	C163.873062,140.117584 163.410019,141.045135 162.974182,141.984467 
	C163.001373,141.996231 162.967865,141.947327 162.752991,142.052551 
	C162.286774,142.374817 162.129852,142.646408 161.799133,142.989471 
	C161.355621,142.969345 161.180328,142.932297 160.956436,142.593323 
	C160.295609,141.496384 159.683380,140.701370 159.043579,139.939560 
	C159.016022,139.972778 159.101379,139.959915 159.057404,139.690430 
	C158.747391,139.199066 158.481369,138.977188 158.251831,138.772095 
	C158.288345,138.788879 158.304489,138.710159 158.253052,138.413025 
	C157.584351,137.090469 156.967072,136.065048 156.194153,134.711395 
	C153.187286,129.558762 150.336044,124.734367 147.484818,119.909973 
	C147.141876,120.052299 146.798950,120.194618 146.456009,120.336945 
	C146.456009,124.219032 146.456009,128.101120 146.456009,132.400803 
	C143.402084,132.555923 140.685989,132.693878 137.814590,132.618744 
	C137.346252,132.249405 137.033203,132.093170 136.720154,131.936920 
	C136.588211,119.234047 136.456284,106.531174 136.303268,93.106865 
	C136.198654,91.969269 136.115128,91.553116 136.031601,91.136955 
z"/>
<path fill="#ECB42D" opacity="1.000000" stroke="none" 
	d="
M167.203644,159.074814 
	C167.230896,161.272522 167.258148,163.470215 167.209900,166.303864 
	C164.759079,167.913483 162.383759,168.887146 160.008438,169.860809 
	C154.977554,169.810577 149.946671,169.760345 144.011810,169.703949 
	C133.589325,169.493195 133.589325,169.493195 132.209900,161.011856 
	C132.268890,160.559448 132.327896,160.107040 132.391129,158.955124 
	C132.337219,157.508301 132.279068,156.760986 132.220901,156.013672 
	C132.285645,154.934387 132.350403,153.855118 132.374634,151.966675 
	C132.408478,147.574005 132.324478,143.977051 132.627792,140.413040 
	C132.767441,138.772263 133.697067,135.796555 134.214951,135.808197 
	C139.108139,135.918137 143.989792,136.541962 148.898773,137.352631 
	C147.942368,138.453140 146.961929,139.218719 145.957062,139.584534 
	C144.313385,138.294846 142.694122,137.404892 140.844727,136.388474 
	C140.020111,140.127563 139.497971,142.495117 138.975830,144.862671 
	C138.430481,144.889969 137.885117,144.917267 137.339752,144.944580 
	C136.389420,142.947784 135.439087,140.950989 133.992371,137.911209 
	C133.992371,147.424454 134.136185,155.699402 133.924408,163.965240 
	C133.834641,167.468140 135.348846,168.158691 138.404480,168.066010 
	C144.064743,167.894333 149.733856,168.015045 155.399292,168.014633 
	C163.801712,168.014038 163.929153,168.028076 164.800995,159.977219 
	C165.197540,156.315231 166.191086,152.259277 161.716675,149.862335 
	C161.214417,149.593277 161.461258,147.925842 161.343033,146.727646 
	C163.605225,147.241486 165.304153,147.627380 167.396027,148.014404 
	C169.882431,148.280533 171.975876,148.545517 173.649017,148.911560 
	C171.188507,149.676239 169.148285,150.339844 167.108078,151.003448 
	C167.038498,152.395432 166.968918,153.787415 166.890472,155.896881 
	C166.988968,157.434509 167.096313,158.254669 167.203644,159.074814 
z"/>
<path fill="#FCFBF8" opacity="1.000000" stroke="none" 
	d="
M167.187927,68.879196 
	C166.844070,66.301270 166.283417,63.728992 166.216064,61.143856 
	C166.145798,58.446056 164.865829,57.827045 162.462555,57.851925 
	C153.836960,57.941238 145.208862,57.979065 136.584198,57.857910 
	C133.708115,57.817516 132.870270,58.984562 132.895538,61.693176 
	C132.971329,69.820282 132.861374,77.949135 132.723541,86.536377 
	C132.081879,85.439873 131.228699,83.918564 131.053299,82.322769 
	C130.299820,75.466858 129.828308,68.580009 129.079544,61.723492 
	C128.763382,58.828270 129.202805,56.635700 132.607910,56.693691 
	C137.546341,56.777790 142.115601,53.650196 147.429138,55.786057 
	C150.145645,56.877995 153.690613,56.288147 156.802628,55.938206 
	C163.342850,55.202763 168.603348,56.387177 171.328766,63.268524 
	C172.014603,65.000160 173.740356,66.319923 174.967773,68.313797 
	C174.947327,68.798645 175.021118,69.028229 174.685150,68.990265 
	C173.899399,68.969826 173.449646,68.987343 172.601990,68.951782 
	C171.136719,68.940407 170.069336,68.982109 168.700653,68.980270 
	C167.995560,68.917557 167.591751,68.898376 167.187927,68.879196 
z"/>
<path fill="#FCFBF8" opacity="1.000000" stroke="none" 
	d="
M148.874756,137.017685 
	C143.989792,136.541962 139.108139,135.918137 134.214951,135.808197 
	C133.697067,135.796555 132.767441,138.772263 132.627792,140.413040 
	C132.324478,143.977051 132.408478,147.574005 132.305206,151.565536 
	C131.067871,151.615723 129.859436,151.257858 128.595154,150.883469 
	C129.077530,148.439880 129.484146,146.380157 129.939667,143.532440 
	C129.325211,140.136139 128.661835,137.527802 127.998459,134.919479 
	C127.998459,134.919479 127.999565,134.460052 128.352402,134.195648 
	C131.150269,133.563248 133.595276,133.195282 136.040298,132.827316 
	C136.040298,132.827316 136.441940,132.923325 136.924988,132.943405 
	C137.595322,132.919617 137.782608,132.875732 137.969879,132.831848 
	C140.685989,132.693878 143.402084,132.555923 146.456009,132.400803 
	C146.456009,128.101120 146.456009,124.219032 146.456009,120.336945 
	C146.798950,120.194618 147.141876,120.052299 147.484818,119.909973 
	C150.336044,124.734367 153.187286,129.558762 155.824585,134.799652 
	C154.452927,135.529510 153.295197,135.842865 151.771881,136.085602 
	C150.562439,136.349213 149.718597,136.683441 148.874756,137.017685 
z"/>
<path fill="#FCFBF8" opacity="1.000000" stroke="none" 
	d="
M202.918533,94.316956 
	C200.402237,94.705696 197.799072,94.778885 194.708588,94.615013 
	C194.221283,94.377945 194.057770,94.004181 194.080444,93.535248 
	C194.114731,87.255653 194.231995,81.442291 194.083618,75.635727 
	C194.027893,73.455765 193.355133,71.291565 192.639862,69.058899 
	C191.877457,68.997849 191.438904,68.998077 190.539383,68.944092 
	C186.048798,68.777603 182.019180,68.665329 177.989548,68.553055 
	C179.404510,68.035416 180.805954,67.119888 182.236847,67.071289 
	C187.509857,66.892174 192.792618,67.000145 198.845551,67.000145 
	C201.246292,70.794312 189.159119,76.907753 199.834183,80.111198 
	C199.578812,81.074242 199.598389,81.670456 199.310486,81.986542 
	C194.277206,87.511925 194.624268,89.510986 201.246384,92.950989 
	C201.805756,93.241554 202.304657,93.648514 202.918533,94.316956 
z"/>
<path fill="#FCFBF8" opacity="1.000000" stroke="none" 
	d="
M214.304413,129.413803 
	C214.634247,127.564522 215.689819,125.968536 215.727737,124.348732 
	C215.910599,116.538155 215.549530,108.708153 215.925430,100.911263 
	C216.154358,96.162491 214.791595,94.075775 209.882385,94.874496 
	C208.591843,95.084480 207.229141,94.850983 205.448334,94.720634 
	C206.707825,92.865837 208.418533,91.111542 210.323807,89.157730 
	C211.467636,91.255196 213.473862,93.435333 216.837769,90.374580 
	C216.933487,90.287491 219.618057,92.109367 219.571106,92.956657 
	C219.304565,97.766731 218.296585,102.538033 218.070190,107.347435 
	C217.782181,113.465782 218.019806,119.608009 217.987762,125.739716 
	C217.976044,127.982086 217.921570,130.294449 214.304413,129.413803 
z"/>
<path fill="#FCFBF8" opacity="1.000000" stroke="none" 
	d="
M167.466461,151.049164 
	C169.148285,150.339844 171.188507,149.676239 174.015137,148.978271 
	C175.543594,148.908173 176.285645,148.872437 177.471298,148.933838 
	C180.942688,148.969757 183.970459,148.908569 187.364105,148.952164 
	C188.484238,148.996170 189.238495,148.935379 190.361298,148.934967 
	C191.463547,148.896637 192.197235,148.797928 193.316010,148.547302 
	C193.845184,141.949661 193.989288,135.503906 194.102173,129.064072 
	C194.070953,129.069977 194.125610,129.108322 194.125610,129.108322 
	C194.547592,129.105743 194.969559,129.103180 195.700714,129.169067 
	C196.006912,134.704468 196.082336,140.173019 195.970734,145.637756 
	C195.906586,148.778625 195.730057,151.960999 190.903000,150.263977 
	C189.974136,149.937408 188.272400,150.631668 187.451141,151.408722 
	C185.408813,153.341156 183.988983,153.680237 181.757965,151.406616 
	C180.849594,150.480865 177.877060,150.405228 176.651215,151.195480 
	C173.480484,153.239487 170.741821,152.183182 167.466461,151.049164 
z"/>
<path fill="#7B7A7B" opacity="1.000000" stroke="none" 
	d="
M127.567467,134.946854 
	C128.661835,137.527802 129.325211,140.136139 129.889801,143.131729 
	C125.870087,140.855240 125.870087,140.855240 122.769539,144.229462 
	C122.494034,140.882645 122.285309,138.347000 122.032265,135.272903 
	C124.020844,135.156540 125.578659,135.065384 127.567467,134.946854 
z"/>
<path fill="#7A7A7A" opacity="1.000000" stroke="none" 
	d="
M60.862274,143.862640 
	C58.789742,142.447647 56.749481,141.223312 55.576042,139.431366 
	C55.160480,138.796783 56.550800,136.018005 57.661949,135.569733 
	C59.346073,134.890320 61.506756,135.392197 63.277203,136.426529 
	C61.581635,137.331436 59.874218,138.216675 58.230541,139.207657 
	C58.159153,139.250687 58.836479,140.770691 58.891129,140.753052 
	C60.081852,140.369202 61.233650,139.864639 63.630947,139.867355 
	C62.832672,141.188110 62.034397,142.508881 60.862274,143.862640 
z"/>
<path fill="#838383" opacity="1.000000" stroke="none" 
	d="
M114.965614,141.089386 
	C114.508636,146.323044 110.894180,142.448547 108.545334,143.842804 
	C108.545334,140.675232 108.545334,138.143845 108.545334,135.367157 
	C110.907272,135.367157 113.164139,135.367157 115.421005,135.367157 
	C115.481079,135.704269 115.541153,136.041382 115.601227,136.378510 
	C114.235947,136.747650 112.870667,137.116806 111.869095,137.387619 
	C112.908058,138.094635 114.151016,138.940475 114.846466,140.027130 
	C113.424194,140.337540 112.549423,140.407166 111.674652,140.476776 
	C111.681374,140.680984 111.688087,140.885178 111.694809,141.089386 
	C112.785072,141.089386 113.875343,141.089386 114.965614,141.089386 
z"/>
<path fill="#777777" opacity="1.000000" stroke="none" 
	d="
M46.227020,137.013062 
	C46.703541,136.303268 47.180065,135.593475 48.477837,133.660400 
	C48.477837,137.701752 48.477837,140.305237 48.477837,143.924713 
	C46.438686,142.416336 44.891659,141.271988 43.307484,140.100159 
	C43.017525,141.037582 42.675354,142.143829 42.333183,143.250076 
	C41.804554,143.250931 41.275925,143.251785 40.747295,143.252655 
	C40.627018,140.648865 40.506741,138.045074 40.323456,134.077286 
	C42.257839,135.425476 43.184799,136.071533 44.498936,137.208557 
	C45.183208,137.965347 45.480297,138.231140 45.777390,138.496948 
	C45.927265,138.002319 46.077145,137.507690 46.227020,137.013062 
z"/>
<path fill="#767676" opacity="1.000000" stroke="none" 
	d="
M76.984169,141.040359 
	C75.042511,142.276733 73.100853,143.513123 70.263756,145.319687 
	C70.263756,140.972534 70.263756,138.371475 70.263756,135.479950 
	C72.550392,135.479950 74.753761,135.479950 76.957138,135.479950 
	C76.993042,135.775497 77.028946,136.071045 77.064850,136.366592 
	C75.846756,136.737976 74.628662,137.109375 73.372757,137.492294 
	C74.639305,138.096710 75.860054,138.679291 76.805771,139.698578 
	C76.422287,140.257706 76.313843,140.380127 76.205399,140.502548 
	C76.464989,140.681808 76.724579,140.861084 76.984169,141.040359 
z"/>
<path fill="#747474" opacity="1.000000" stroke="none" 
	d="
M86.660263,141.033417 
	C86.206116,141.766708 85.751976,142.500000 84.485405,144.545074 
	C84.485405,140.460236 84.485405,137.877792 84.485405,134.243484 
	C86.522797,135.963120 88.011314,137.219482 89.553200,138.520905 
	C89.984863,137.357834 90.413452,136.203064 90.842041,135.048294 
	C91.159210,135.090271 91.476379,135.132263 91.793549,135.174240 
	C91.793549,137.742157 91.793549,140.310059 91.793549,143.805435 
	C90.441551,142.807404 89.526077,142.131622 88.232803,140.977509 
	C87.414680,140.280914 86.974358,140.062622 86.534035,139.844330 
	C86.576111,140.240692 86.618187,140.637054 86.660263,141.033417 
z"/>
<path fill="#FCFBF8" opacity="1.000000" stroke="none" 
	d="
M160.038025,170.234772 
	C162.383759,168.887146 164.759079,167.913483 167.396896,166.674744 
	C168.299988,167.845016 169.499176,169.311218 169.422119,170.706940 
	C169.346909,172.068954 167.440094,174.580887 167.241272,174.495041 
	C164.754425,173.421005 162.432098,171.966019 160.038025,170.234772 
z"/>
<path fill="#FCFBF8" opacity="1.000000" stroke="none" 
	d="
M131.842255,161.052551 
	C133.589325,169.493195 133.589325,169.493195 143.551666,169.796387 
	C141.346725,170.724731 138.550217,172.498215 136.091507,172.113434 
	C133.728485,171.743622 130.087463,170.559402 130.966431,166.304214 
	C131.317474,164.604752 131.315735,162.832397 131.842255,161.052551 
z"/>
<path fill="#FDFDFD" opacity="1.000000" stroke="none" 
	d="
M122.983040,118.044891 
	C122.544334,118.014015 122.105629,117.983139 121.109177,117.709595 
	C119.365639,117.305595 118.179840,117.144257 116.994049,116.982910 
	C118.242332,114.734390 125.168785,113.019325 126.896698,114.693695 
	C128.532196,116.278488 128.385727,117.642105 125.255615,117.773186 
	C124.145447,117.720551 123.564240,117.882721 122.983040,118.044891 
z"/>
<path fill="#FDFDFD" opacity="1.000000" stroke="none" 
	d="
M136.017883,132.462418 
	C133.595276,133.195282 131.150269,133.563248 128.352936,133.965912 
	C128.802704,132.538727 129.678574,129.816788 130.392624,129.858597 
	C132.297394,129.970123 134.132599,131.270004 136.017883,132.462418 
z"/>
<path fill="#FCFBF8" opacity="1.000000" stroke="none" 
	d="
M44.734669,122.744232 
	C40.985050,123.353851 36.952194,123.658707 32.458847,123.942062 
	C34.071232,123.279961 36.107899,122.342857 38.227398,122.083992 
	C40.257328,121.836075 42.373287,122.292580 44.734669,122.744232 
z"/>
<path fill="#FCDA85" opacity="1.000000" stroke="none" 
	d="
M177.617523,68.654724 
	C182.019180,68.665329 186.048798,68.777603 190.245758,69.239212 
	C185.282425,69.401764 180.151779,69.214996 175.021118,69.028229 
	C175.021118,69.028229 174.947327,68.798645 174.957275,68.676865 
	C175.726669,68.622192 176.486084,68.689293 177.617523,68.654724 
z"/>
<path fill="#FCFBF8" opacity="1.000000" stroke="none" 
	d="
M116.685608,117.012390 
	C118.179840,117.144257 119.365639,117.305595 120.780258,117.744659 
	C119.126137,118.265327 117.243179,118.508286 115.163651,118.423798 
	C115.437111,117.744865 115.907143,117.393372 116.685608,117.012390 
z"/>
<path fill="#FCFBF8" opacity="1.000000" stroke="none" 
	d="
M167.619263,159.068726 
	C167.096313,158.254669 166.988968,157.434509 166.977051,156.307800 
	C168.233917,156.564209 169.395325,157.127167 170.556747,157.690140 
	C169.716125,158.147644 168.875488,158.605133 167.619263,159.068726 
z"/>
<path fill="#FCFBF8" opacity="1.000000" stroke="none" 
	d="
M74.089554,150.836609 
	C73.362129,150.042664 72.971039,149.300003 72.579941,148.557343 
	C73.320503,148.545166 74.061050,148.533005 74.801605,148.520844 
	C74.676369,149.309860 74.551125,150.098877 74.089554,150.836609 
z"/>
<path fill="#FCFBF8" opacity="1.000000" stroke="none" 
	d="
M51.023682,147.505814 
	C51.495861,148.456863 51.635983,149.404633 51.776100,150.352386 
	C51.312271,150.374100 50.848442,150.395798 50.384613,150.417496 
	C50.486946,149.445831 50.589283,148.474182 51.023682,147.505814 
z"/>
<path fill="#FCFBF8" opacity="1.000000" stroke="none" 
	d="
M132.318604,88.983551 
	C132.739380,89.434395 132.823776,89.893982 132.886154,90.705582 
	C131.776230,90.932854 130.688324,90.808105 129.600418,90.683365 
	C129.540909,90.396301 129.481400,90.109238 129.421890,89.822182 
	C130.275345,89.545547 131.128784,89.268913 132.318604,88.983551 
z"/>
<path fill="#FCFBF8" opacity="1.000000" stroke="none" 
	d="
M174.715851,156.449982 
	C175.576920,156.720963 176.191742,157.198410 176.806564,157.675842 
	C176.511612,157.981583 176.216660,158.287338 175.921707,158.593079 
	C175.437668,157.947525 174.953629,157.301987 174.715851,156.449982 
z"/>
<path fill="#FCFBF8" opacity="1.000000" stroke="none" 
	d="
M100.002609,141.078705 
	C100.416420,141.637939 100.679985,142.470490 100.943550,143.303055 
	C100.396591,143.328384 99.849625,143.353699 99.302658,143.379028 
	C99.485901,142.703354 99.669136,142.027695 100.002609,141.078705 
z"/>
<path fill="#FCFBF8" opacity="1.000000" stroke="none" 
	d="
M131.859573,156.047470 
	C132.279068,156.760986 132.337219,157.508301 132.303650,158.621445 
	C131.534683,158.534286 130.857422,158.081314 130.180161,157.628326 
	C130.619522,157.112640 131.058884,156.596954 131.859573,156.047470 
z"/>
<path fill="#FCFBF8" opacity="1.000000" stroke="none" 
	d="
M62.808880,150.799133 
	C62.163673,150.471878 61.819923,150.082275 61.476173,149.692657 
	C62.020584,149.549423 62.564991,149.406174 63.109398,149.262939 
	C63.109711,149.754196 63.110023,150.245483 62.808880,150.799133 
z"/>
<path fill="#FCFBF8" opacity="1.000000" stroke="none" 
	d="
M122.987961,150.545166 
	C122.653061,149.884613 122.623253,149.227509 122.593452,148.570389 
	C122.871849,148.574371 123.150238,148.578369 123.428635,148.582352 
	C123.383438,149.237762 123.338249,149.893173 122.987961,150.545166 
z"/>
<path fill="#FCFBF8" opacity="1.000000" stroke="none" 
	d="
M84.528229,148.676910 
	C84.591812,149.443970 84.442513,149.988129 84.293213,150.532303 
	C83.938515,150.328659 83.583809,150.125015 83.229095,149.921371 
	C83.591179,149.432251 83.953262,148.943146 84.528229,148.676910 
z"/>
<path fill="#FCFBF8" opacity="1.000000" stroke="none" 
	d="
M31.654213,143.517517 
	C31.941271,142.938354 32.446758,142.581482 32.952251,142.224609 
	C33.144894,142.589478 33.337532,142.954330 33.530167,143.319199 
	C32.977661,143.459412 32.425152,143.599609 31.654213,143.517517 
z"/>
<path fill="#FCFBF8" opacity="1.000000" stroke="none" 
	d="
M135.645981,91.125740 
	C136.115128,91.553116 136.198654,91.969269 136.183853,92.691742 
	C135.094437,92.603302 134.103378,92.208549 133.028625,91.482880 
	C133.716736,91.139481 134.488556,91.127007 135.645981,91.125740 
z"/>
<path fill="#FCFBF8" opacity="1.000000" stroke="none" 
	d="
M199.474396,147.307709 
	C199.468536,146.551712 199.673782,146.015305 199.879028,145.478882 
	C200.153595,145.613907 200.428162,145.748917 200.702728,145.883926 
	C200.363647,146.431702 200.024567,146.979477 199.474396,147.307709 
z"/>
<path fill="#FCFBF8" opacity="1.000000" stroke="none" 
	d="
M112.402542,148.675156 
	C111.709724,148.867004 111.090134,148.786789 110.470535,148.706573 
	C110.537651,148.289322 110.604767,147.872070 110.671883,147.454819 
	C111.273178,147.770905 111.874474,148.087006 112.402542,148.675156 
z"/>
<path fill="#FCFBF8" opacity="1.000000" stroke="none" 
	d="
M172.465744,164.608704 
	C172.349701,165.058411 172.066483,165.334106 171.765289,165.588501 
	C171.757584,165.595016 171.552505,165.367859 171.439484,165.249664 
	C171.725067,164.977066 172.010635,164.704483 172.465744,164.608704 
z"/>
<path fill="#FCFBF8" opacity="1.000000" stroke="none" 
	d="
M114.984558,140.901062 
	C113.875343,141.089386 112.785072,141.089386 111.694809,141.089386 
	C111.688087,140.885178 111.681374,140.680984 111.674652,140.476776 
	C112.549423,140.407166 113.424194,140.337540 114.658020,140.301208 
	C115.017067,140.334473 115.003502,140.712753 114.984558,140.901062 
z"/>
<path fill="#FCFBF8" opacity="1.000000" stroke="none" 
	d="
M123.072174,118.320129 
	C123.564240,117.882721 124.145447,117.720551 124.884232,117.786224 
	C124.962738,118.295280 124.814255,118.533165 124.407272,118.824379 
	C123.865875,118.812485 123.513596,118.703926 123.072174,118.320129 
z"/>
<path fill="#FCFBF8" opacity="1.000000" stroke="none" 
	d="
M86.876320,141.028076 
	C86.618187,140.637054 86.576111,140.240692 86.534035,139.844330 
	C86.974358,140.062622 87.414680,140.280914 87.906921,140.756836 
	C87.958839,141.014450 87.525566,141.013870 87.525566,141.013870 
	C87.525566,141.013870 87.092377,141.022751 86.876320,141.028076 
z"/>
<path fill="#FCFBF8" opacity="1.000000" stroke="none" 
	d="
M86.733948,148.352249 
	C86.991409,148.367081 87.131973,148.504715 87.272537,148.642334 
	C87.054039,148.586578 86.835548,148.530823 86.733948,148.352249 
z"/>
<path fill="#FCFBF8" opacity="1.000000" stroke="none" 
	d="
M45.841606,137.031937 
	C46.077145,137.507690 45.927265,138.002319 45.777390,138.496948 
	C45.480297,138.231140 45.183208,137.965347 44.787148,137.413055 
	C44.944187,137.101334 45.200191,137.076080 45.841606,137.031937 
z"/>
<path fill="#2C2C2C" opacity="1.000000" stroke="none" 
	d="
M74.054794,120.260460 
	C74.224281,120.265602 74.353813,120.510193 74.338593,120.853020 
	C74.193825,120.951248 74.014847,120.499916 74.054794,120.260460 
z"/>
<path fill="#2C2C2C" opacity="1.000000" stroke="none" 
	d="
M74.146606,95.274750 
	C74.614555,95.293076 74.667809,95.556190 74.260078,95.910141 
	C74.105072,95.973602 74.037872,95.492142 74.146606,95.274750 
z"/>
<path fill="#FCFBF8" opacity="1.000000" stroke="none" 
	d="
M42.551807,149.466034 
	C42.586224,149.523254 42.517391,149.408829 42.551807,149.466034 
z"/>
<path fill="#353535" opacity="1.000000" stroke="none" 
	d="
M137.814590,132.618744 
	C137.782608,132.875732 137.595322,132.919617 137.122345,133.004150 
	C136.734161,132.868881 136.631714,132.692978 136.624710,132.226990 
	C137.033203,132.093170 137.346252,132.249405 137.814590,132.618744 
z"/>
<path fill="#FCFBF8" opacity="1.000000" stroke="none" 
	d="
M76.991890,140.788589 
	C76.724579,140.861084 76.464989,140.681808 76.205399,140.502548 
	C76.313843,140.380127 76.422287,140.257706 76.771194,140.084244 
	C77.007637,140.201065 77.003624,140.368942 76.991890,140.788589 
z"/>
<path fill="#FDD469" opacity="1.000000" stroke="none" 
	d="
M174.685150,68.990265 
	C180.151779,69.214996 185.282425,69.401764 190.706711,69.293419 
	C191.438904,68.998077 191.877457,68.997849 192.645477,69.511444 
	C192.841400,73.946510 192.460617,77.879265 192.642349,81.785843 
	C192.832428,85.871727 193.563293,89.932457 194.057770,94.004181 
	C194.057770,94.004181 194.221283,94.377945 194.281555,94.572403 
	C192.209671,94.530579 190.077545,94.294296 187.488190,93.621208 
	C187.030991,91.230415 187.030991,89.276436 187.030991,85.724022 
	C184.967041,88.005554 183.659454,89.090286 182.811172,90.459564 
	C180.678986,93.901321 178.754272,97.471626 176.363831,100.992928 
	C174.300766,101.520653 172.620255,102.045830 170.526535,102.660141 
	C167.386734,102.548889 164.660141,102.348518 161.956329,101.693604 
	C161.425446,98.476463 160.871765,95.713867 160.225525,92.670700 
	C160.036240,92.010071 159.939514,91.630013 159.842773,91.249947 
	C159.894745,85.969963 160.258667,80.669189 159.908371,75.416023 
	C159.577591,70.455254 161.240967,68.228462 166.741043,68.925026 
	C167.591751,68.898376 167.995560,68.917557 168.912537,69.237152 
	C170.617081,69.360008 171.808487,69.182442 172.999878,69.004868 
	C173.449646,68.987343 173.899399,68.969826 174.685150,68.990265 
z"/>
<path fill="#FCFBF5" opacity="1.000000" stroke="none" 
	d="
M161.933548,102.148148 
	C164.660141,102.348518 167.386734,102.548889 170.932434,102.782944 
	C172.875748,102.880646 173.999954,102.944664 175.002792,103.338188 
	C172.526672,107.485558 170.171936,111.303421 167.384827,115.072220 
	C159.973953,114.748070 159.975922,114.748100 159.865540,121.474052 
	C159.857529,121.961594 159.791794,122.448189 159.752914,122.935219 
	C153.655426,112.547935 147.557938,102.160652 141.371429,91.465485 
	C147.167892,91.167137 153.053360,91.176666 159.390808,91.218071 
	C159.939514,91.630013 160.036240,92.010071 160.119583,93.108467 
	C160.715317,96.600586 161.324432,99.374367 161.933548,102.148148 
z"/>
<path fill="#FCC00F" opacity="1.000000" stroke="none" 
	d="
M177.027695,148.836700 
	C176.285645,148.872437 175.543594,148.908173 174.435425,148.877197 
	C171.975876,148.545517 169.882431,148.280533 167.395172,147.587616 
	C166.325623,145.100418 165.649887,143.041153 164.983643,140.630951 
	C164.958023,139.813248 164.922928,139.346481 164.887833,138.879700 
	C164.887833,138.879700 164.953049,138.957138 165.185394,138.822708 
	C165.597382,138.122849 165.777023,137.557419 165.956650,136.991989 
	C165.956650,136.991989 165.984406,136.986542 166.244446,136.831482 
	C166.657639,136.119125 166.810806,135.561829 166.963974,135.004517 
	C166.963974,135.004517 166.908356,134.513245 167.043945,134.180435 
	C166.820740,133.582397 166.461929,133.317169 166.103119,133.051956 
	C165.764465,132.237198 165.425812,131.422455 164.976593,129.938354 
	C163.686935,125.726028 162.364502,122.219658 161.443100,118.610901 
	C161.245804,117.838120 162.501801,116.694290 163.164612,115.594818 
	C164.220459,118.352913 164.894821,120.114487 165.762787,122.181740 
	C167.325363,124.278015 168.694321,126.068604 169.875854,127.614037 
	C172.432526,125.018082 174.750031,122.664978 177.001801,120.742661 
	C176.936096,125.396690 176.936096,129.619949 176.936096,134.001831 
	C178.839554,134.001831 180.007645,133.869553 181.136017,134.025177 
	C185.561371,134.635468 187.515457,133.162430 187.082489,128.338303 
	C186.685760,123.918053 187.100327,119.424980 187.157425,114.963997 
	C193.993240,115.034691 193.992905,115.034691 194.006836,121.805305 
	C194.011200,123.924744 194.017944,126.044182 194.074600,128.635971 
	C194.125610,129.108322 194.070953,129.069977 193.783203,129.256287 
	C193.307281,135.861465 193.119110,142.280334 192.930939,148.699219 
	C192.197235,148.797928 191.463547,148.896637 190.140289,148.695251 
	C188.697144,148.255035 187.843552,148.114929 186.624023,147.936935 
	C183.181305,148.211594 180.104492,148.524139 177.027695,148.836700 
z"/>
<path fill="#3E3D3D" opacity="1.000000" stroke="none" 
	d="
M177.067535,120.311874 
	C174.750031,122.664978 172.432526,125.018082 169.875854,127.614037 
	C168.694321,126.068604 167.325363,124.278015 165.803711,121.813156 
	C166.373077,119.133018 167.095139,117.127151 167.817215,115.121284 
	C170.171936,111.303421 172.526672,107.485558 175.276672,103.253387 
	C176.030090,102.222839 176.388229,101.606606 176.746368,100.990372 
	C178.754272,97.471626 180.678986,93.901321 182.811172,90.459564 
	C183.659454,89.090286 184.967041,88.005554 187.030991,85.724022 
	C187.030991,89.276436 187.030991,91.230415 187.092133,93.619911 
	C187.098526,94.228592 187.043777,94.401772 186.645126,95.142181 
	C186.301224,107.683319 186.301224,119.657234 186.301224,131.620544 
	C182.929184,131.620544 180.706284,131.620544 178.548157,131.620544 
	C178.021866,127.600822 177.544693,123.956352 177.067535,120.311874 
z"/>
<path fill="#3C310D" opacity="1.000000" stroke="none" 
	d="
M177.001816,120.742661 
	C177.544693,123.956352 178.021866,127.600822 178.548157,131.620544 
	C180.706284,131.620544 182.929184,131.620544 186.301224,131.620544 
	C186.301224,119.657234 186.301224,107.683319 186.566406,95.403000 
	C186.893250,101.412460 186.954941,107.728310 187.087036,114.504082 
	C187.100327,119.424980 186.685760,123.918053 187.082489,128.338303 
	C187.515457,133.162430 185.561371,134.635468 181.136017,134.025177 
	C180.007645,133.869553 178.839554,134.001831 176.936096,134.001831 
	C176.936096,129.619949 176.936096,125.396690 177.001816,120.742661 
z"/>
<path fill="#FDB403" opacity="1.000000" stroke="none" 
	d="
M164.974136,140.981873 
	C165.649887,143.041153 166.325623,145.100418 167.002228,147.586487 
	C165.304153,147.627380 163.605225,147.241486 161.343033,146.727646 
	C161.461258,147.925842 161.214417,149.593277 161.716675,149.862335 
	C166.191086,152.259277 165.197540,156.315231 164.800995,159.977219 
	C163.929153,168.028076 163.801712,168.014038 155.399292,168.014633 
	C149.733856,168.015045 144.064743,167.894333 138.404480,168.066010 
	C135.348846,168.158691 133.834641,167.468140 133.924408,163.965240 
	C134.136185,155.699402 133.992371,147.424454 133.992371,137.911209 
	C135.439087,140.950989 136.389420,142.947784 137.339752,144.944580 
	C137.885117,144.917267 138.430481,144.889969 138.975830,144.862671 
	C139.497971,142.495117 140.020111,140.127563 140.844727,136.388474 
	C142.694122,137.404892 144.313385,138.294846 145.964432,139.591614 
	C145.996231,139.998428 145.983093,139.987213 145.668854,140.141281 
	C143.506104,144.583099 143.655869,144.708633 150.845505,144.541107 
	C150.588425,146.160461 150.062943,147.744141 150.203262,149.266464 
	C150.281235,150.112549 151.469650,150.856277 152.157608,151.646149 
	C152.990540,150.894165 154.483612,150.182892 154.532974,149.382568 
	C154.682968,146.950668 154.275085,144.484360 154.042526,141.801010 
	C154.000610,141.570572 153.966385,141.103394 153.992523,140.739349 
	C154.105881,136.367752 157.026077,139.651810 158.304489,138.710159 
	C158.304489,138.710159 158.288345,138.788879 158.273804,139.049072 
	C158.539963,139.526154 158.820679,139.743027 159.101379,139.959915 
	C159.101379,139.959915 159.016022,139.972778 159.010529,140.300629 
	C159.671707,141.384048 160.338364,142.139648 161.005035,142.895233 
	C161.180328,142.932297 161.355621,142.969345 162.024628,142.897659 
	C162.795212,142.576294 162.945068,142.295761 162.967865,141.947327 
	C162.967865,141.947327 163.001373,141.996231 163.245407,141.900787 
	C163.984329,141.530853 164.479233,141.256363 164.974136,140.981873 
z"/>
<path fill="#E2B939" opacity="1.000000" stroke="none" 
	d="
M167.384827,115.072220 
	C167.095139,117.127151 166.373077,119.133018 165.610107,121.507477 
	C164.894821,120.114487 164.220459,118.352913 163.164612,115.594818 
	C162.501801,116.694290 161.245804,117.838120 161.443100,118.610901 
	C162.364502,122.219658 163.686935,125.726028 164.847519,129.631134 
	C163.277328,127.843033 161.725632,125.692795 159.963425,123.238892 
	C159.791794,122.448189 159.857529,121.961594 159.865540,121.474052 
	C159.975922,114.748100 159.973953,114.748070 167.384827,115.072220 
z"/>
<path fill="#ECB42D" opacity="1.000000" stroke="none" 
	d="
M158.253052,138.413025 
	C157.026077,139.651810 154.105881,136.367752 153.742401,140.511124 
	C153.023254,139.150024 152.580368,137.653122 152.137466,136.156219 
	C153.295197,135.842865 154.452927,135.529510 155.980225,135.127899 
	C156.967072,136.065048 157.584351,137.090469 158.253052,138.413025 
z"/>
<path fill="#ECB42D" opacity="1.000000" stroke="none" 
	d="
M160.956436,142.593323 
	C160.338364,142.139648 159.671707,141.384048 159.038086,140.267395 
	C159.683380,140.701370 160.295609,141.496384 160.956436,142.593323 
z"/>
<path fill="#ECB42D" opacity="1.000000" stroke="none" 
	d="
M164.983643,140.630951 
	C164.479233,141.256363 163.984329,141.530853 163.218201,141.889008 
	C163.410019,141.045135 163.873062,140.117584 164.611969,139.034866 
	C164.922928,139.346481 164.958023,139.813248 164.983643,140.630951 
z"/>
<path fill="#ECB42D" opacity="1.000000" stroke="none" 
	d="
M166.736511,135.179230 
	C166.810806,135.561829 166.657639,136.119125 166.240967,136.817780 
	C166.154648,136.424057 166.331833,135.889008 166.736511,135.179230 
z"/>
<path fill="#ECB42D" opacity="1.000000" stroke="none" 
	d="
M166.098175,133.277542 
	C166.461929,133.317169 166.820740,133.582397 166.974838,133.943085 
	C166.435944,133.997269 166.210312,133.818802 166.098175,133.277542 
z"/>
<path fill="#ECB42D" opacity="1.000000" stroke="none" 
	d="
M165.701752,137.144287 
	C165.777023,137.557419 165.597382,138.122849 165.135315,138.815308 
	C165.050873,138.393753 165.248856,137.845169 165.701752,137.144287 
z"/>
<path fill="#ECB42D" opacity="1.000000" stroke="none" 
	d="
M162.752991,142.052551 
	C162.945068,142.295761 162.795212,142.576294 162.292847,142.880737 
	C162.129852,142.646408 162.286774,142.374817 162.752991,142.052551 
z"/>
<path fill="#ECB42D" opacity="1.000000" stroke="none" 
	d="
M159.057404,139.690430 
	C158.820679,139.743027 158.539963,139.526154 158.237305,139.032288 
	C158.481369,138.977188 158.747391,139.199066 159.057404,139.690430 
z"/>
<path fill="#8F7645" opacity="1.000000" stroke="none" 
	d="
M151.771881,136.085602 
	C152.580368,137.653122 153.023254,139.150024 153.716278,140.875153 
	C153.966385,141.103394 154.000610,141.570572 153.808105,142.076523 
	C151.618515,142.616043 149.582947,142.880676 147.645248,142.557831 
	C146.967255,142.444885 146.530182,140.885880 145.983093,139.987213 
	C145.983093,139.987213 145.996231,139.998428 145.988861,139.991364 
	C146.961929,139.218719 147.942368,138.453140 148.898773,137.352631 
	C149.718597,136.683441 150.562439,136.349213 151.771881,136.085602 
z"/>
<path fill="#FCDA85" opacity="1.000000" stroke="none" 
	d="
M172.601990,68.951782 
	C171.808487,69.182442 170.617081,69.360008 169.213806,69.280685 
	C170.069336,68.982109 171.136719,68.940407 172.601990,68.951782 
z"/>
<path fill="#FCDA85" opacity="1.000000" stroke="none" 
	d="
M194.080444,93.535248 
	C193.563293,89.932457 192.832428,85.871727 192.642349,81.785843 
	C192.460617,77.879265 192.841400,73.946510 192.969299,69.572723 
	C193.355133,71.291565 194.027893,73.455765 194.083618,75.635727 
	C194.231995,81.442291 194.114731,87.255653 194.080444,93.535248 
z"/>
<path fill="#FDC83B" opacity="1.000000" stroke="none" 
	d="
M193.316025,148.547302 
	C193.119110,142.280334 193.307281,135.861465 193.814423,129.250366 
	C193.989288,135.503906 193.845184,141.949661 193.316025,148.547302 
z"/>
<path fill="#ECB42D" opacity="1.000000" stroke="none" 
	d="
M177.471298,148.933807 
	C180.104492,148.524139 183.181305,148.211594 186.622192,148.155243 
	C186.986267,148.411453 186.998245,148.847382 186.998245,148.847382 
	C183.970459,148.908569 180.942688,148.969757 177.471298,148.933807 
z"/>
<path fill="#FDC83B" opacity="1.000000" stroke="none" 
	d="
M187.364105,148.952164 
	C186.998245,148.847382 186.986267,148.411453 186.988113,148.193146 
	C187.843552,148.114929 188.697144,148.255035 189.771759,148.634857 
	C189.238495,148.935379 188.484238,148.996170 187.364105,148.952164 
z"/>
<path fill="#FCDA85" opacity="1.000000" stroke="none" 
	d="
M161.956329,101.693604 
	C161.324432,99.374367 160.715317,96.600586 160.212143,93.389038 
	C160.871765,95.713867 161.425446,98.476463 161.956329,101.693604 
z"/>
<path fill="#FCDA85" opacity="1.000000" stroke="none" 
	d="
M176.363831,100.992920 
	C176.388229,101.606606 176.030090,102.222839 175.398071,102.923874 
	C173.999954,102.944664 172.875748,102.880646 171.345642,102.693825 
	C172.620255,102.045830 174.300766,101.520653 176.363831,100.992920 
z"/>
<path fill="#ECB42D" opacity="1.000000" stroke="none" 
	d="
M145.668854,140.141281 
	C146.530182,140.885880 146.967255,142.444885 147.645248,142.557831 
	C149.582947,142.880676 151.618515,142.616043 153.850021,142.306961 
	C154.275085,144.484360 154.682968,146.950668 154.532974,149.382568 
	C154.483612,150.182892 152.990540,150.894165 152.157608,151.646149 
	C151.469650,150.856277 150.281235,150.112549 150.203262,149.266464 
	C150.062943,147.744141 150.588425,146.160461 150.845505,144.541107 
	C143.655869,144.708633 143.506104,144.583099 145.668854,140.141281 
z"/>
</svg>